<!DOCTYPE svg PUBLIC "-//W3C//DTD SVG 1.1//EN" "http://www.w3.org/Graphics/SVG/1.1/DTD/svg11.dtd">
<!-- Uploaded to: SVG Repo, www.svgrepo.com, Transformed by: SVG Repo Mixer Tools -->
<svg height="800px" width="800px" version="1.1" id="Layer_1" xmlns="http://www.w3.org/2000/svg" xmlns:xlink="http://www.w3.org/1999/xlink" viewBox="0 0 509.287 509.287" xml:space="preserve" fill="#000000">
<g id="SVGRepo_bgCarrier" stroke-width="0"/>
<g id="SVGRepo_tracerCarrier" stroke-linecap="round" stroke-linejoin="round"/>
<g id="SVGRepo_iconCarrier"> <circle style="fill:#6EB1E1;" cx="254.644" cy="254.644" r="254.644"/> <path style="fill:#F1F3F7;" d="M64.424,161.06v243.793c0,8.138,6.442,14.58,14.58,14.58h351.279c8.138,0,14.58-6.442,14.58-14.58 V161.06H64.424z"/> <path style="fill:#646B79;" d="M444.864,104.434c0-8.138-6.442-14.58-14.58-14.58H79.004c-8.138,0-14.58,6.442-14.58,14.58v56.625 h380.101v-56.625H444.864z"/> <circle style="fill:#F0582F;" cx="107.486" cy="125.457" r="9.833"/> <circle style="fill:#FBD303;" cx="138.681" cy="125.457" r="9.833"/> <circle style="fill:#6EB1E1;" cx="169.875" cy="125.457" r="9.833"/> <path style="fill:#3d73a9;" d="M350.94,282.109c0-1.017-0.678-2.034-2.034-2.374l-16.615-4.069 c-2.034-10.85-6.103-20.683-12.207-29.499l8.816-14.919c0.678-1.017,0.339-2.374-0.339-3.052l-11.528-11.528 c-0.678-0.678-2.034-1.017-3.052-0.339l-14.919,8.816c-8.816-5.764-18.649-10.172-29.499-12.207l-4.069-16.615 c-0.339-1.017-1.356-2.034-2.374-2.034h-16.275c-1.017,0-2.034,0.678-2.374,2.034l-4.069,16.615 c-10.85,2.034-20.683,6.103-29.499,12.207l-14.919-8.816c-1.017-0.678-2.374-0.339-3.052,0.339l-11.528,11.528 c-0.678,0.678-1.017,2.034-0.339,3.052l8.816,14.919c-6.103,8.816-10.172,18.649-12.207,29.499l-16.615,4.069 c-1.017,0.339-2.034,1.356-2.034,2.374v16.275c0,1.017,0.678,2.034,2.034,2.374l16.615,4.069 c2.034,10.85,6.103,20.683,12.207,29.499l-8.816,14.919c-0.678,1.017-0.339,2.374,0.339,3.052l11.528,11.529 c0.678,0.678,2.034,1.017,3.052,0.339l14.919-8.816c8.816,5.764,18.649,10.172,29.499,12.207l4.069,16.615 c0.339,1.017,1.356,2.034,2.374,2.034h16.275c1.017,0,2.034-0.678,2.374-2.034l4.069-16.615c10.85-2.034,20.683-6.103,29.499-12.207 l14.919,8.816c1.017,0.678,2.374,0.339,3.052-0.339l11.528-11.529c0.678-0.678,1.017-2.034,0.339-3.052l-8.816-14.919 c6.103-8.816,10.172-18.649,12.207-29.499l16.615-4.069c1.017-0.339,2.034-1.356,2.034-2.374V282.109z M254.644,329.918 c-22.04,0-39.672-17.632-39.672-39.672c0-22.04,17.632-39.671,39.672-39.671s39.672,17.632,39.672,39.671 C294.315,312.286,276.683,329.918,254.644,329.918z"/> </g>
</svg>